<svg xmlns="http://www.w3.org/2000/svg" xmlns:xlink="http://www.w3.org/1999/xlink" width="500" zoomAndPan="magnify" viewBox="0 0 375 374.999991" height="500" preserveAspectRatio="xMidYMid meet" version="1.0"><defs><g/><clipPath id="fb0a7dbaf5"><path d="M 53 133 L 150.589844 133 L 150.589844 243.625 L 53 243.625 Z M 53 133 " clip-rule="nonzero"/></clipPath></defs><rect x="-37.5" width="450" fill="#ffffff" y="-37.499999" height="449.999989" fill-opacity="1"/><rect x="-37.5" width="450" fill="#ffffff" y="-37.499999" height="449.999989" fill-opacity="1"/><g clip-path="url(#fb0a7dbaf5)"><path fill="#e92425" d="M 142.90625 139.945312 C 138.53125 135.777344 132.667969 133.449219 126.625 133.472656 C 120.382812 133.496094 114.519531 135.9375 110.105469 140.351562 L 101.683594 148.769531 L 93.476562 140.5625 C 84.335938 131.421875 69.445312 131.132812 60.214844 140.1875 C 50.890625 149.332031 50.835938 164.355469 60.046875 173.566406 L 104.625 218.144531 C 109.714844 223.234375 109.953125 231.519531 104.964844 236.699219 C 99.859375 242.003906 91.386719 242.066406 86.203125 236.886719 L 75.160156 225.84375 C 74.695312 225.378906 74.648438 224.640625 75.046875 224.113281 C 76.679688 221.96875 77.582031 219.246094 77.378906 216.308594 C 76.980469 210.511719 72.242188 205.847656 66.4375 205.546875 C 59.714844 205.195312 54.140625 210.609375 54.230469 217.273438 C 54.3125 223.449219 59.347656 228.546875 65.519531 228.699219 C 67.511719 228.75 69.390625 228.296875 71.046875 227.457031 C 71.546875 227.199219 72.160156 227.308594 72.554688 227.707031 L 83.964844 239.117188 C 87.140625 242.292969 91.3125 243.878906 95.488281 243.878906 C 99.660156 243.878906 103.835938 242.292969 107.011719 239.117188 C 113.363281 232.761719 113.363281 222.421875 107.011719 216.070312 L 62.28125 171.335938 C 54.355469 163.410156 54.355469 150.511719 62.28125 142.585938 C 70.210938 134.660156 83.109375 134.660156 91.03125 142.585938 L 100.527344 152.082031 C 100.847656 152.398438 101.265625 152.550781 101.683594 152.539062 C 102.105469 152.550781 102.523438 152.398438 102.84375 152.082031 L 112.148438 142.773438 C 116.007812 138.914062 121.21875 136.640625 126.671875 136.632812 C 132.121094 136.621094 137.242188 138.738281 141.089844 142.585938 C 144.9375 146.433594 147.050781 151.550781 147.042969 156.992188 C 147.035156 162.453125 144.761719 167.664062 140.902344 171.527344 L 137.894531 174.535156 C 137.648438 174.78125 137.308594 174.921875 136.960938 174.921875 L 127.996094 174.921875 C 127.496094 174.921875 127.039062 174.640625 126.816406 174.195312 L 122.488281 165.535156 C 122.003906 164.5625 120.621094 164.5625 120.136719 165.535156 L 112.691406 180.40625 C 112.207031 181.378906 110.824219 181.378906 110.339844 180.40625 L 107.800781 175.320312 C 107.316406 174.351562 105.929688 174.351562 105.449219 175.320312 L 102.90625 180.40625 C 102.421875 181.375 101.039062 181.375 100.554688 180.40625 L 93.117188 165.53125 C 92.632812 164.558594 91.25 164.558594 90.765625 165.53125 L 86.433594 174.191406 C 86.210938 174.636719 85.753906 174.917969 85.257812 174.917969 L 77.324219 174.917969 C 76.457031 174.917969 75.707031 175.582031 75.679688 176.449219 C 75.652344 177.34375 76.367188 178.074219 77.257812 178.074219 L 87.210938 178.074219 C 87.707031 178.074219 88.164062 177.792969 88.386719 177.347656 L 90.765625 172.589844 C 91.25 171.617188 92.632812 171.617188 93.117188 172.589844 L 100.554688 187.464844 C 101.039062 188.433594 102.421875 188.433594 102.90625 187.464844 L 105.449219 182.378906 C 105.929688 181.410156 107.316406 181.410156 107.800781 182.378906 L 110.339844 187.464844 C 110.824219 188.4375 112.207031 188.4375 112.691406 187.464844 L 120.128906 172.589844 C 120.613281 171.621094 122 171.621094 122.484375 172.589844 L 124.863281 177.351562 C 125.085938 177.796875 125.542969 178.078125 126.039062 178.078125 L 138.160156 178.078125 C 138.257812 178.078125 138.351562 178.066406 138.445312 178.050781 C 138.449219 178.050781 138.457031 178.046875 138.460938 178.046875 C 138.554688 178.027344 138.648438 178.003906 138.734375 177.96875 C 138.742188 177.964844 138.75 177.964844 138.757812 177.960938 C 138.84375 177.925781 138.929688 177.878906 139.007812 177.828125 C 139.015625 177.824219 139.023438 177.820312 139.03125 177.816406 C 139.113281 177.757812 139.195312 177.695312 139.269531 177.625 C 139.269531 177.621094 139.269531 177.621094 139.273438 177.617188 L 143.09375 173.796875 C 147.613281 169.277344 150.25 163.15625 150.203125 156.761719 C 150.148438 150.371094 147.558594 144.378906 142.90625 139.945312 Z M 57.390625 217.117188 C 57.390625 212.46875 61.171875 208.6875 65.816406 208.6875 C 70.464844 208.6875 74.246094 212.46875 74.246094 217.117188 C 74.246094 221.765625 70.464844 225.546875 65.816406 225.546875 C 61.171875 225.546875 57.390625 221.765625 57.390625 217.117188 Z M 57.390625 217.117188 " fill-opacity="1" fill-rule="nonzero"/></g><g fill="#346cb6" fill-opacity="1"><g transform="translate(156.77122, 174.948677)"><g><path d="M 8.828125 -16.421875 C 10.921875 -16.421875 12.5625 -15.921875 13.75 -14.921875 C 14.9375 -13.921875 15.53125 -12.546875 15.53125 -10.796875 C 15.53125 -9.046875 14.9375 -7.671875 13.75 -6.671875 C 12.5625 -5.679688 10.921875 -5.1875 8.828125 -5.1875 L 4.40625 -5.1875 L 4.40625 0 L 2.671875 0 L 2.671875 -16.421875 Z M 8.78125 -6.71875 C 10.40625 -6.71875 11.644531 -7.070312 12.5 -7.78125 C 13.363281 -8.488281 13.796875 -9.492188 13.796875 -10.796875 C 13.796875 -12.128906 13.363281 -13.148438 12.5 -13.859375 C 11.644531 -14.566406 10.40625 -14.921875 8.78125 -14.921875 L 4.40625 -14.921875 L 4.40625 -6.71875 Z M 8.78125 -6.71875 "/></g></g></g><g fill="#346cb6" fill-opacity="1"><g transform="translate(173.617687, 174.948677)"><g><path d="M 4.40625 -14.921875 L 4.40625 -8.46875 L 12.90625 -8.46875 L 12.90625 -6.96875 L 4.40625 -6.96875 L 4.40625 0 L 2.671875 0 L 2.671875 -16.421875 L 13.9375 -16.421875 L 13.9375 -14.921875 Z M 4.40625 -14.921875 "/></g></g></g><g fill="#346cb6" fill-opacity="1"><g transform="translate(188.469793, 174.948677)"><g><path d="M 2.671875 -16.421875 L 4.40625 -16.421875 L 4.40625 -1.5 L 13.609375 -1.5 L 13.609375 0 L 2.671875 0 Z M 2.671875 -16.421875 "/></g></g></g><g fill="#346cb6" fill-opacity="1"><g transform="translate(202.289531, 174.948677)"><g><path d="M 14.296875 -1.5 L 14.296875 0 L 2.671875 0 L 2.671875 -16.421875 L 13.9375 -16.421875 L 13.9375 -14.921875 L 4.40625 -14.921875 L 4.40625 -9.078125 L 12.90625 -9.078125 L 12.90625 -7.609375 L 4.40625 -7.609375 L 4.40625 -1.5 Z M 14.296875 -1.5 "/></g></g></g><g fill="#346cb6" fill-opacity="1"><g transform="translate(217.98631, 174.948677)"><g><path d="M 14.25 -8.21875 L 15.90625 -8.21875 L 15.90625 -1.953125 C 15.144531 -1.273438 14.238281 -0.753906 13.1875 -0.390625 C 12.132812 -0.0351562 11.03125 0.140625 9.875 0.140625 C 8.238281 0.140625 6.757812 -0.21875 5.4375 -0.9375 C 4.125 -1.65625 3.09375 -2.648438 2.34375 -3.921875 C 1.59375 -5.203125 1.21875 -6.632812 1.21875 -8.21875 C 1.21875 -9.789062 1.59375 -11.210938 2.34375 -12.484375 C 3.09375 -13.765625 4.125 -14.765625 5.4375 -15.484375 C 6.757812 -16.203125 8.25 -16.5625 9.90625 -16.5625 C 11.15625 -16.5625 12.300781 -16.363281 13.34375 -15.96875 C 14.394531 -15.570312 15.28125 -14.984375 16 -14.203125 L 14.921875 -13.09375 C 13.628906 -14.375 11.976562 -15.015625 9.96875 -15.015625 C 8.644531 -15.015625 7.445312 -14.722656 6.375 -14.140625 C 5.300781 -13.554688 4.457031 -12.742188 3.84375 -11.703125 C 3.238281 -10.660156 2.9375 -9.5 2.9375 -8.21875 C 2.9375 -6.9375 3.238281 -5.773438 3.84375 -4.734375 C 4.457031 -3.703125 5.296875 -2.890625 6.359375 -2.296875 C 7.421875 -1.703125 8.617188 -1.40625 9.953125 -1.40625 C 11.640625 -1.40625 13.070312 -1.828125 14.25 -2.671875 Z M 14.25 -8.21875 "/></g></g></g><g fill="#346cb6" fill-opacity="1"><g transform="translate(236.12325, 174.948677)"><g><path d="M 14.296875 -1.5 L 14.296875 0 L 2.671875 0 L 2.671875 -16.421875 L 13.9375 -16.421875 L 13.9375 -14.921875 L 4.40625 -14.921875 L 4.40625 -9.078125 L 12.90625 -9.078125 L 12.90625 -7.609375 L 4.40625 -7.609375 L 4.40625 -1.5 Z M 14.296875 -1.5 "/></g></g></g><g fill="#346cb6" fill-opacity="1"><g transform="translate(251.82003, 174.948677)"><g><path d="M 2.671875 -16.421875 L 9.359375 -16.421875 C 11.097656 -16.421875 12.628906 -16.070312 13.953125 -15.375 C 15.285156 -14.6875 16.320312 -13.71875 17.0625 -12.46875 C 17.800781 -11.226562 18.171875 -9.8125 18.171875 -8.21875 C 18.171875 -6.613281 17.800781 -5.191406 17.0625 -3.953125 C 16.320312 -2.710938 15.285156 -1.742188 13.953125 -1.046875 C 12.628906 -0.347656 11.097656 0 9.359375 0 L 2.671875 0 Z M 9.265625 -1.5 C 10.703125 -1.5 11.960938 -1.785156 13.046875 -2.359375 C 14.128906 -2.929688 14.96875 -3.722656 15.5625 -4.734375 C 16.15625 -5.742188 16.453125 -6.90625 16.453125 -8.21875 C 16.453125 -9.53125 16.15625 -10.691406 15.5625 -11.703125 C 14.96875 -12.710938 14.128906 -13.5 13.046875 -14.0625 C 11.960938 -14.632812 10.703125 -14.921875 9.265625 -14.921875 L 4.40625 -14.921875 L 4.40625 -1.5 Z M 9.265625 -1.5 "/></g></g></g><g fill="#346cb6" fill-opacity="1"><g transform="translate(271.200509, 174.948677)"><g><path d="M 2.671875 -16.421875 L 4.40625 -16.421875 L 4.40625 0 L 2.671875 0 Z M 2.671875 -16.421875 "/></g></g></g><g fill="#346cb6" fill-opacity="1"><g transform="translate(278.286352, 174.948677)"><g><path d="M 14.296875 -1.5 L 14.296875 0 L 2.671875 0 L 2.671875 -16.421875 L 13.9375 -16.421875 L 13.9375 -14.921875 L 4.40625 -14.921875 L 4.40625 -9.078125 L 12.90625 -9.078125 L 12.90625 -7.609375 L 4.40625 -7.609375 L 4.40625 -1.5 Z M 14.296875 -1.5 "/></g></g></g><g fill="#346cb6" fill-opacity="1"><g transform="translate(293.983131, 174.948677)"><g><path d="M 16.40625 -16.421875 L 16.40625 0 L 14.96875 0 L 4.40625 -13.328125 L 4.40625 0 L 2.671875 0 L 2.671875 -16.421875 L 4.109375 -16.421875 L 14.6875 -3.09375 L 14.6875 -16.421875 Z M 16.40625 -16.421875 "/></g></g></g><g fill="#346cb6" fill-opacity="1"><g transform="translate(313.058588, 174.948677)"><g><path d="M 7.203125 0.140625 C 5.984375 0.140625 4.8125 -0.0507812 3.6875 -0.4375 C 2.570312 -0.832031 1.710938 -1.351562 1.109375 -2 L 1.78125 -3.328125 C 2.375 -2.734375 3.160156 -2.253906 4.140625 -1.890625 C 5.128906 -1.523438 6.148438 -1.34375 7.203125 -1.34375 C 8.671875 -1.34375 9.769531 -1.609375 10.5 -2.140625 C 11.238281 -2.679688 11.609375 -3.382812 11.609375 -4.25 C 11.609375 -4.90625 11.410156 -5.425781 11.015625 -5.8125 C 10.617188 -6.207031 10.128906 -6.507812 9.546875 -6.71875 C 8.972656 -6.9375 8.171875 -7.171875 7.140625 -7.421875 C 5.898438 -7.734375 4.910156 -8.03125 4.171875 -8.3125 C 3.441406 -8.601562 2.8125 -9.046875 2.28125 -9.640625 C 1.757812 -10.234375 1.5 -11.039062 1.5 -12.0625 C 1.5 -12.894531 1.71875 -13.648438 2.15625 -14.328125 C 2.59375 -15.003906 3.265625 -15.546875 4.171875 -15.953125 C 5.078125 -16.359375 6.207031 -16.5625 7.5625 -16.5625 C 8.5 -16.5625 9.414062 -16.429688 10.3125 -16.171875 C 11.207031 -15.921875 11.988281 -15.566406 12.65625 -15.109375 L 12.0625 -13.734375 C 11.375 -14.179688 10.640625 -14.519531 9.859375 -14.75 C 9.078125 -14.976562 8.3125 -15.09375 7.5625 -15.09375 C 6.113281 -15.09375 5.023438 -14.8125 4.296875 -14.25 C 3.578125 -13.695312 3.21875 -12.984375 3.21875 -12.109375 C 3.21875 -11.453125 3.414062 -10.921875 3.8125 -10.515625 C 4.207031 -10.117188 4.707031 -9.816406 5.3125 -9.609375 C 5.914062 -9.398438 6.726562 -9.171875 7.75 -8.921875 C 8.945312 -8.617188 9.914062 -8.320312 10.65625 -8.03125 C 11.40625 -7.75 12.035156 -7.3125 12.546875 -6.71875 C 13.066406 -6.132812 13.328125 -5.34375 13.328125 -4.34375 C 13.328125 -3.507812 13.101562 -2.753906 12.65625 -2.078125 C 12.21875 -1.398438 11.535156 -0.859375 10.609375 -0.453125 C 9.679688 -0.0546875 8.546875 0.140625 7.203125 0.140625 Z M 7.203125 0.140625 "/></g></g></g><g fill="#346cb6" fill-opacity="1"><g transform="translate(327.488362, 174.948677)"><g><path d="M 5.859375 -14.921875 L 0.09375 -14.921875 L 0.09375 -16.421875 L 13.375 -16.421875 L 13.375 -14.921875 L 7.609375 -14.921875 L 7.609375 0 L 5.859375 0 Z M 5.859375 -14.921875 "/></g></g></g><g fill="#346cb6" fill-opacity="1"><g transform="translate(156.77122, 198.050791)"><g><path d="M 2.671875 -16.421875 L 9.359375 -16.421875 C 11.097656 -16.421875 12.628906 -16.070312 13.953125 -15.375 C 15.285156 -14.6875 16.320312 -13.71875 17.0625 -12.46875 C 17.800781 -11.226562 18.171875 -9.8125 18.171875 -8.21875 C 18.171875 -6.613281 17.800781 -5.191406 17.0625 -3.953125 C 16.320312 -2.710938 15.285156 -1.742188 13.953125 -1.046875 C 12.628906 -0.347656 11.097656 0 9.359375 0 L 2.671875 0 Z M 9.265625 -1.5 C 10.703125 -1.5 11.960938 -1.785156 13.046875 -2.359375 C 14.128906 -2.929688 14.96875 -3.722656 15.5625 -4.734375 C 16.15625 -5.742188 16.453125 -6.90625 16.453125 -8.21875 C 16.453125 -9.53125 16.15625 -10.691406 15.5625 -11.703125 C 14.96875 -12.710938 14.128906 -13.5 13.046875 -14.0625 C 11.960938 -14.632812 10.703125 -14.921875 9.265625 -14.921875 L 4.40625 -14.921875 L 4.40625 -1.5 Z M 9.265625 -1.5 "/></g></g></g><g fill="#346cb6" fill-opacity="1"><g transform="translate(176.151699, 198.050791)"><g><path d="M 2.671875 -16.421875 L 4.40625 -16.421875 L 4.40625 0 L 2.671875 0 Z M 2.671875 -16.421875 "/></g></g></g><g fill="#346cb6" fill-opacity="1"><g transform="translate(183.237542, 198.050791)"><g><path d="M 14.296875 -1.5 L 14.296875 0 L 2.671875 0 L 2.671875 -16.421875 L 13.9375 -16.421875 L 13.9375 -14.921875 L 4.40625 -14.921875 L 4.40625 -9.078125 L 12.90625 -9.078125 L 12.90625 -7.609375 L 4.40625 -7.609375 L 4.40625 -1.5 Z M 14.296875 -1.5 "/></g></g></g><g fill="#346cb6" fill-opacity="1"><g transform="translate(198.934321, 198.050791)"><g><path d="M 5.859375 -14.921875 L 0.09375 -14.921875 L 0.09375 -16.421875 L 13.375 -16.421875 L 13.375 -14.921875 L 7.609375 -14.921875 L 7.609375 0 L 5.859375 0 Z M 5.859375 -14.921875 "/></g></g></g><g fill="#346cb6" fill-opacity="1"><g transform="translate(212.402112, 198.050791)"><g><path d="M 14.53125 -1.5 L 14.53125 0 L 1.0625 0 L 1.0625 -1.203125 L 11.953125 -14.921875 L 1.21875 -14.921875 L 1.21875 -16.421875 L 14.25 -16.421875 L 14.25 -15.234375 L 3.375 -1.5 Z M 14.53125 -1.5 "/></g></g></g><g fill="#346cb6" fill-opacity="1"><g transform="translate(227.676559, 198.050791)"><g><path d="M 14.296875 -1.5 L 14.296875 0 L 2.671875 0 L 2.671875 -16.421875 L 13.9375 -16.421875 L 13.9375 -14.921875 L 4.40625 -14.921875 L 4.40625 -9.078125 L 12.90625 -9.078125 L 12.90625 -7.609375 L 4.40625 -7.609375 L 4.40625 -1.5 Z M 14.296875 -1.5 "/></g></g></g><g fill="#346cb6" fill-opacity="1"><g transform="translate(243.373338, 198.050791)"><g><path d="M 2.671875 -16.421875 L 4.40625 -16.421875 L 4.40625 -1.5 L 13.609375 -1.5 L 13.609375 0 L 2.671875 0 Z M 2.671875 -16.421875 "/></g></g></g><g fill="#346cb6" fill-opacity="1"><g transform="translate(257.198384, 198.050791)"><g/></g></g></svg>